<?xml version="1.0" encoding="UTF-8" standalone="no"?>
<!DOCTYPE svg PUBLIC "-//W3C//DTD SVG 1.1//EN"
 "http://www.w3.org/Graphics/SVG/1.1/DTD/svg11.dtd">
<!-- Generated by graphviz version 2.43.0 (0)
 -->
<!-- Title: ReproducerMethodology Pages: 1 -->
<svg width="493pt" height="914pt"
 viewBox="0.00 0.00 493.00 914.00" xmlns="http://www.w3.org/2000/svg" xmlns:xlink="http://www.w3.org/1999/xlink">
<g id="graph0" class="graph" transform="scale(1 1) rotate(0) translate(4 910)">
<title>ReproducerMethodology</title>
<polygon fill="#0d0d0d" stroke="transparent" points="-4,4 -4,-910 489,-910 489,4 -4,4"/>
<text text-anchor="middle" x="242.5" y="-886" font-family="Courier,monospace" font-size="20.00" fill="#00ff9f">Minimal reproducer: isolated systemd 255 sandbox</text>
<g id="clust1" class="cluster">
<title>cluster_host</title>
<polygon fill="#0d0d0d" stroke="#ff0000" stroke-width="2" points="134.5,-769 134.5,-868 350.5,-868 350.5,-769 134.5,-769"/>
<text text-anchor="middle" x="242.5" y="-848" font-family="Courier,monospace" font-size="20.00" fill="#ff0000">worlock (host)</text>
</g>
<g id="clust2" class="cluster">
<title>cluster_container</title>
<polygon fill="#0d0d0d" stroke="#00b4ff" stroke-width="2" points="102.5,-442 102.5,-736 382.5,-736 382.5,-442 102.5,-442"/>
<text text-anchor="middle" x="242.5" y="-716" font-family="Courier,monospace" font-size="20.00" fill="#00b4ff">Docker container (isolated)</text>
</g>
<!-- hostpid1 -->
<g id="node1" class="node">
<title>hostpid1</title>
<polygon fill="#3a0d0d" stroke="#ff0000" stroke-width="2" points="342.5,-830 142.5,-830 142.5,-777 342.5,-777 342.5,-830"/>
<text text-anchor="middle" x="242.5" y="-814.8" font-family="Courier,monospace" font-size="14.00" fill="#ff0000">Real PID 1 (systemd 249)</text>
<text text-anchor="middle" x="242.5" y="-799.8" font-family="Courier,monospace" font-size="14.00" fill="#ff0000">off&#45;limits — a repeat crash</text>
<text text-anchor="middle" x="242.5" y="-784.8" font-family="Courier,monospace" font-size="14.00" fill="#ff0000">needs a physical hard reset</text>
</g>
<!-- image -->
<g id="node2" class="node">
<title>image</title>
<polygon fill="#0d1a2a" stroke="#00b4ff" stroke-width="2" points="352,-698 133,-698 133,-645 352,-645 352,-698"/>
<text text-anchor="middle" x="242.5" y="-682.8" font-family="Courier,monospace" font-size="14.00" fill="#e0e0e0">ubuntu:24.04 + systemd</text>
<text text-anchor="middle" x="242.5" y="-667.8" font-family="Courier,monospace" font-size="14.00" fill="#e0e0e0">installed via Dockerfile.repro</text>
<text text-anchor="middle" x="242.5" y="-652.8" font-family="Courier,monospace" font-size="14.00" fill="#e0e0e0">(image: systemd&#45;repro:noble)</text>
</g>
<!-- hostpid1&#45;&gt;image -->
<g id="edge3" class="edge">
<title>hostpid1&#45;&gt;image</title>
<path fill="none" stroke="#555555" stroke-width="2" stroke-dasharray="5,2" d="M242.5,-776.82C242.5,-757.23 242.5,-730.02 242.5,-708.29"/>
<polygon fill="#555555" stroke="#555555" stroke-width="2" points="246,-708.13 242.5,-698.13 239,-708.13 246,-708.13"/>
<text text-anchor="middle" x="293.5" y="-747.8" font-family="Courier,monospace" font-size="14.00" fill="#888888"> &#160;never touched</text>
</g>
<!-- runflags -->
<g id="node3" class="node">
<title>runflags</title>
<polygon fill="#0d1a2a" stroke="#00b4ff" stroke-width="2" points="369,-608 116,-608 116,-540 369,-540 369,-608"/>
<text text-anchor="middle" x="242.5" y="-592.8" font-family="Courier,monospace" font-size="14.00" fill="#e0e0e0">docker run &#45;&#45;privileged</text>
<text text-anchor="middle" x="242.5" y="-577.8" font-family="Courier,monospace" font-size="14.00" fill="#e0e0e0">&#45;&#45;cgroupns=host</text>
<text text-anchor="middle" x="242.5" y="-562.8" font-family="Courier,monospace" font-size="14.00" fill="#e0e0e0">&#45;v /sys/fs/cgroup:/sys/fs/cgroup:rw</text>
<text text-anchor="middle" x="242.5" y="-547.8" font-family="Courier,monospace" font-size="14.00" fill="#e0e0e0">CMD [&quot;/sbin/init&quot;]</text>
</g>
<!-- image&#45;&gt;runflags -->
<g id="edge1" class="edge">
<title>image&#45;&gt;runflags</title>
<path fill="none" stroke="#00b4ff" stroke-width="2" d="M242.5,-644.91C242.5,-636.72 242.5,-627.41 242.5,-618.32"/>
<polygon fill="#00b4ff" stroke="#00b4ff" stroke-width="2" points="246,-618.22 242.5,-608.22 239,-618.22 246,-618.22"/>
</g>
<!-- contpid1 -->
<g id="node4" class="node">
<title>contpid1</title>
<polygon fill="#0d2a1a" stroke="#00ff9f" stroke-width="2" points="335,-503 150,-503 150,-450 335,-450 335,-503"/>
<text text-anchor="middle" x="242.5" y="-487.8" font-family="Courier,monospace" font-size="14.00" fill="#00ff9f">Container&#39;s own PID 1</text>
<text text-anchor="middle" x="242.5" y="-472.8" font-family="Courier,monospace" font-size="14.00" fill="#00ff9f">systemd 255.4&#45;1ubuntu8.17</text>
<text text-anchor="middle" x="242.5" y="-457.8" font-family="Courier,monospace" font-size="14.00" fill="#00ff9f">(isolated namespace)</text>
</g>
<!-- runflags&#45;&gt;contpid1 -->
<g id="edge2" class="edge">
<title>runflags&#45;&gt;contpid1</title>
<path fill="none" stroke="#00b4ff" stroke-width="2" d="M242.5,-539.87C242.5,-531.29 242.5,-522.01 242.5,-513.3"/>
<polygon fill="#00b4ff" stroke="#00b4ff" stroke-width="2" points="246,-513.05 242.5,-503.05 239,-513.05 246,-513.05"/>
</g>
<!-- unit -->
<g id="node5" class="node">
<title>unit</title>
<polygon fill="#2a0d20" stroke="#ff0090" stroke-width="2" points="335,-413 150,-413 150,-345 335,-345 335,-413"/>
<text text-anchor="middle" x="242.5" y="-397.8" font-family="Courier,monospace" font-size="14.00" fill="#ff0090">repro.service planted:</text>
<text text-anchor="middle" x="242.5" y="-382.8" font-family="Courier,monospace" font-size="14.00" fill="#ff0090">same malformed</text>
<text text-anchor="middle" x="242.5" y="-367.8" font-family="Courier,monospace" font-size="14.00" fill="#ff0090">Environment=&quot;PATH=...&quot;</text>
<text text-anchor="middle" x="242.5" y="-352.8" font-family="Courier,monospace" font-size="14.00" fill="#ff0090">pattern as ollama.service</text>
</g>
<!-- contpid1&#45;&gt;unit -->
<g id="edge4" class="edge">
<title>contpid1&#45;&gt;unit</title>
<path fill="none" stroke="#00b4ff" stroke-width="2" d="M242.5,-449.91C242.5,-441.72 242.5,-432.41 242.5,-423.32"/>
<polygon fill="#00b4ff" stroke="#00b4ff" stroke-width="2" points="246,-423.22 242.5,-413.22 239,-423.22 246,-423.22"/>
</g>
<!-- test -->
<g id="node6" class="node">
<title>test</title>
<polygon fill="#1a1a2e" stroke="#00b4ff" stroke-width="2" points="345.5,-308 139.5,-308 139.5,-270 345.5,-270 345.5,-308"/>
<text text-anchor="middle" x="242.5" y="-292.8" font-family="Courier,monospace" font-size="14.00" fill="#e0e0e0">systemctl start</text>
<text text-anchor="middle" x="242.5" y="-277.8" font-family="Courier,monospace" font-size="14.00" fill="#e0e0e0">+ 5x systemctl daemon&#45;reload</text>
</g>
<!-- unit&#45;&gt;test -->
<g id="edge5" class="edge">
<title>unit&#45;&gt;test</title>
<path fill="none" stroke="#00b4ff" stroke-width="2" d="M242.5,-344.98C242.5,-336.2 242.5,-326.8 242.5,-318.3"/>
<polygon fill="#00b4ff" stroke="#00b4ff" stroke-width="2" points="246,-318.13 242.5,-308.13 239,-318.13 246,-318.13"/>
</g>
<!-- result -->
<g id="node7" class="node">
<title>result</title>
<polygon fill="#0d2a1a" stroke="#00ff9f" stroke-width="2" points="342,-233 143,-233 143,-150 342,-150 342,-233"/>
<text text-anchor="middle" x="242.5" y="-217.8" font-family="Courier,monospace" font-size="14.00" fill="#00ff9f">Result: NO crash.</text>
<text text-anchor="middle" x="242.5" y="-202.8" font-family="Courier,monospace" font-size="14.00" fill="#00ff9f">&#39;Invalid syntax, ignoring&#39;</text>
<text text-anchor="middle" x="242.5" y="-187.8" font-family="Courier,monospace" font-size="14.00" fill="#00ff9f">logged every time, cleanly</text>
<text text-anchor="middle" x="242.5" y="-172.8" font-family="Courier,monospace" font-size="14.00" fill="#00ff9f">skipped. is&#45;system&#45;running:</text>
<text text-anchor="middle" x="242.5" y="-157.8" font-family="Courier,monospace" font-size="14.00" fill="#00ff9f">running throughout.</text>
</g>
<!-- test&#45;&gt;result -->
<g id="edge6" class="edge">
<title>test&#45;&gt;result</title>
<path fill="none" stroke="#00b4ff" stroke-width="2" d="M242.5,-269.59C242.5,-261.94 242.5,-252.66 242.5,-243.23"/>
<polygon fill="#00b4ff" stroke="#00b4ff" stroke-width="2" points="246,-243 242.5,-233 239,-243 246,-243"/>
</g>
<!-- compare -->
<g id="node8" class="node">
<title>compare</title>
<polygon fill="#2a2a1a" stroke="#ffcc00" stroke-width="2" points="417,-113 62,-113 62,0 423,0 423,-107 417,-113"/>
<polyline fill="none" stroke="#ffcc00" stroke-width="2" points="417,-113 417,-107 "/>
<polyline fill="none" stroke="#ffcc00" stroke-width="2" points="423,-107 417,-107 "/>
<text text-anchor="middle" x="242.5" y="-97.8" font-family="Courier,monospace" font-size="14.00" fill="#ffcc00">Comparison:</text>
<text text-anchor="middle" x="242.5" y="-82.8" font-family="Courier,monospace" font-size="14.00" fill="#ffcc00">v249 (worlock, real incident): 4/5 reloads with</text>
<text text-anchor="middle" x="242.5" y="-67.8" font-family="Courier,monospace" font-size="14.00" fill="#ffcc00"> &#160;this exact content were safe, identically logged</text>
<text text-anchor="middle" x="242.5" y="-52.8" font-family="Courier,monospace" font-size="14.00" fill="#ffcc00">v255 (sandbox, this test): &#160;&#160;&#160;5/5 reloads safe,</text>
<text text-anchor="middle" x="242.5" y="-37.8" font-family="Courier,monospace" font-size="14.00" fill="#ffcc00"> &#160;identically logged</text>
<text text-anchor="middle" x="242.5" y="-22.8" font-family="Courier,monospace" font-size="14.00" fill="#ffcc00">⇒ same parser behavior across versions;</text>
<text text-anchor="middle" x="242.5" y="-7.8" font-family="Courier,monospace" font-size="14.00" fill="#ffcc00"> &#160;&#160;this input alone does not explain the one crash.</text>
</g>
<!-- result&#45;&gt;compare -->
</g>
</svg>
